<?xml version="1.0" encoding="UTF-8"?>
<svg xmlns="http://www.w3.org/2000/svg" xmlns:xlink="http://www.w3.org/1999/xlink" width="32px" height="32px" viewBox="0 0 32 32" version="1.1">
<g id="surface1">
<path style=" stroke:none;fill-rule:nonzero;fill:rgb(0%,0%,0%);fill-opacity:1;" d="M 22.667969 1.207031 L 19.644531 4.230469 L 27.769531 12.355469 L 30.792969 9.332031 C 32.355469 7.769531 32.355469 5.238281 30.792969 3.675781 L 28.332031 1.207031 C 26.769531 -0.355469 24.238281 -0.355469 22.675781 1.207031 Z M 18.230469 5.644531 L 3.664062 20.21875 C 3.011719 20.867188 2.539062 21.675781 2.273438 22.554688 L 0.0625 30.074219 C -0.09375 30.605469 0.0507812 31.175781 0.4375 31.5625 C 0.824219 31.949219 1.394531 32.09375 1.917969 31.945312 L 9.4375 29.730469 C 10.320312 29.46875 11.125 28.992188 11.773438 28.34375 L 26.355469 13.769531 Z M 18.230469 5.644531 "/>
</g>
</svg>
